<?xml version="1.0" encoding="utf-8"?>
<!-- Generator: Adobe Illustrator 26.0.3, SVG Export Plug-In . SVG Version: 6.00 Build 0)  -->
<svg version="1.1" id="Layer_1" xmlns="http://www.w3.org/2000/svg" xmlns:xlink="http://www.w3.org/1999/xlink" x="0px" y="0px"
	 viewBox="0 0 1080 1080" style="enable-background:new 0 0 1080 1080;" xml:space="preserve">
<style type="text/css">
	.st0{fill:#9A1919;}
</style>
<path class="st0" d="M849.75,618.23c-2.41-33.6-8.16-70.32-23.24-100.77c-8.31-16.79-22.21-29.64-32.16-45.35
	c-10.19-16.08-17.07-33.74-21.58-52.2c-6.97-28.55-7.3-57.52-6.72-86.71c0.46-23.53,11.18-52.25-5.31-71.45
	c-17.98-20.92-32.87-17.12-59.05-18.43c-6.3-0.32-11.56-0.72-17.66-0.84c-6.86-0.94-17.79-0.82-24.36-2.16
	c-4.83-0.99-9.69-1.94-14.6-2.43c-1.78-0.18-3.6-0.21-5.33-0.75c-1.51-0.47-3.31-1.04-4.5-2.12c-1.59-1.45-13.31,0.29-21.27,3.62
	c-7.43,3.11-19.01,5.96-14.88,11.62c0.63,0.86,1.23,1.77,1.71,2.72c0.22,0.43,0.5,0.88,0.83,1.21c0.74,0.73,1.25,1.67,1.62,2.65
	c1.09,2.88,3.23,7.94,5.7,10.31c0,0-1.74-8.78-3.33-13.12c0,0,2.27,0.05,3.13,1.45c0.87,1.4,0.87,5.06,6.03,10.75
	c0,0,1.21,1.78,1.8,1.95c0,0-1.1-4.05-2.59-6.42c-1.48-2.37-1.7-7.56-1.7-7.56s0.94-2.84,8.07-2.04c0,0,4.49,5.64,4.63,7.58
	c0.14,1.93-0.33,8.43-2.35,10.56c-2.03,2.13-6.92,1.87-6.92,1.87s-5.43,0.07-7.07,3.35c-1.64,3.28-3.18,5.4-5.81,4.87
	c-2.63-0.53-4.48-0.39-4.48-0.39s0.82,1.06,4.32,1.47c0,0,1.71,0.14-2.8,1.93c0,0-2.65,1.42,5.67-0.84c0,0,2.36,0.22,5.74-6.44
	c0,0,1.62-2.94,9.8-2.38c0,0-3.56,4.9-3.53,6.4c0.04,1.5,0.56,4.09,6.71,3.47c6.16-0.62,4.99-5.7,10.77-9.98
	c1.19-0.88,2.34-1.82,3.43-2.83c0.77-0.72,1.51-1.47,2.14-2.31c0.37-0.49,0.73-0.9,0.78-1.55c0.03-0.46-0.05-0.91-0.1-1.37
	c-0.07-0.63-0.03-1.28,0.31-1.83c0.35-0.57,0.84-0.67,1.46-0.78c0.76-0.13,1.53-0.25,2.29-0.37c2.82-0.42,7.03,0.97,9.88,1.37
	c9.79,1.38,19.98,3.03,30.01,3.66c7.76,0.49,15.54,0.11,23.3,0.89c11.53,1.15,24.78,4.91,27.45,17.87c0.49,2.37,0.59,4.81,0.46,7.22
	c-3.27,61.71-6.03,125.33,23.18,181.97c13.36,25.92,36.31,44.89,45.24,73.18c9.74,30.82,14.8,64.41,13.54,96.72
	c-1.16,29.81-9.22,60.54-27.22,84.78c-17.25,23.23-43.09,29.9-65.03,7.96c-39.79-39.78-22.71-107.21-53-151.85
	c-7.61-11.22-18.18-19.3-31.04-23.58c-18.62-6.2-34.95-3.9-50.24-18.74c-6.04-5.86-11.18-13.05-12.85-21.3
	c-2.81-13.94,1.91-28.36-0.7-42.6c-2.23-12.21-7.57-23.61-15.77-32.96c-31.34-35.73-86.31-41.31-130.72-44.11
	c-48.9-3.08-99.18-0.84-137.33,34.21c-26.01,23.9-39.01,54.56-39.01,91.96c0,13.82,2.25,26.76,6.75,38.87
	c4.49,12.1,10.5,22.31,18,30.61c7.5,8.3,16.85,15.16,28.05,20.54c11.2,5.41,22.45,9.41,33.76,12c11.29,2.6,26.95,5.52,46.96,8.71
	c20.6,3.41,36.1,6.55,46.51,9.45c10.4,2.91,19.65,7.3,27.76,13.2c8.1,5.91,14.4,13.76,18.9,23.56c4.51,9.81,6.75,21.31,6.75,34.51
	c0,18.8-4.71,35.75-14.1,50.86c-9.4,15.11-22.56,26.55-39.46,34.36c-16.91,7.79-35.96,11.7-57.16,11.7c-15.41,0-30.66-1.99-45.76-6
	c-9.44-2.51-18.74-5.7-27.47-10.11c-4.35-2.2-8.55-4.7-12.55-7.51c-2.6-1.83-9.36-5.49-10.18-8.71c-0.19-0.75-0.11-1.55,0.03-2.32
	c0.42-2.34,1.34-4.37,2.56-6.24c0.99-1.54,2.18-2.97,3.43-4.4c15.61-17.78,20.18-66.85,11.57-61.2
	c-10.1,7.54-5.93,22.51-15.55,29.14c-8.06,5.56-18.63-1.77-28.41-2.33c-10.14-0.59-19.58,6.86-23.55,16.22
	c-3.96,9.35-3.25,20.11-0.47,29.89c16.1,56.62,81.68,61.49,130.73,61.49c49.41,0,91.47-14.21,126.18-42.62
	c34.71-28.4,52.06-63.91,52.06-106.52c0-21.8-4.85-40.4-14.55-55.81c-9.71-15.4-22.61-26.65-38.71-33.76
	c-16.1-7.1-41.86-13.15-77.26-18.14c-25.81-3.81-43.56-7.01-53.26-9.6c-9.71-2.6-18.21-6.55-25.51-11.86
	c-7.3-5.3-13.25-12.5-17.85-21.6c-4.6-9.09-6.9-19.55-6.9-31.35c0-15.21,3.8-30.11,11.4-44.72c7.6-14.59,18.8-25.31,33.61-32.1
	c36.19-16.6,82.96-12.37,120.87-4.88c21.05,4.16,45.98,8.91,59.03,27.76c11.24,16.25,9.98,34.79,12.36,53.38
	c2.31,17.98,10.74,35.48,22.62,49.04c18.39,21.01,37.73,22.19,63.03,29.59c28.42,8.31,29.71,50.42,34.69,74.45
	c6.18,29.84,12.68,60.95,31.91,85.49c17.83,22.75,47.71,37.65,76.81,29.93c30.33-8.04,50.38-38.46,61.92-65.66
	C848.15,685.62,852.14,651.55,849.75,618.23z M631.22,245c-4.83,0.5-16.57,0.61-11.67-1.25c0,0,9.09-3.23,15.22-3.23
	C634.77,240.52,635.75,244.54,631.22,245z"/>
</svg>
